<?xml version="1.0" encoding="UTF-8"?>
<svg id="Layer_2" data-name="Layer 2" xmlns="http://www.w3.org/2000/svg" viewBox="0 0 152.5 44">
  <defs>
    <style>
      .cls-1 {
        fill: #87e6e0;
      }

      .cls-2 {
        fill: none;
        stroke: #111;
        stroke-width: 4px;
      }

      .cls-3 {
        fill: #fff56d;
      }

      .cls-4 {
        fill: #242e7a;
      }

      .cls-5 {
        fill: #b9fff6;
      }
    </style>
  </defs>
  <g id="Layer_1-2" data-name="Layer 1">
    <g>
      <g>
        <path class="cls-1" d="M2.08,20.88C2.08,10.56,10.44,2.2,20.75,2.2s18.67,8.36,18.67,18.67v2.25c0,10.31-8.36,18.67-18.67,18.67S2.08,33.44,2.08,23.12v-2.25Z"/>
        <path class="cls-2" d="M20.75,2c10.36,0,18.75,8.39,18.75,18.75v2.5c0,10.36-8.39,18.75-18.75,18.75S2,33.61,2,23.25v-2.5C2,10.39,10.39,2,20.75,2Z"/>
        <path class="cls-4" d="M20.75,17.51c-2.48,0-4.49,2-4.49,4.49s2,4.49,4.49,4.49,4.49-2,4.49-4.49-2-4.49-4.49-4.49ZM20.75,24.91c-1.61,0-2.92-1.31-2.92-2.92s1.31-2.92,2.92-2.92,2.92,1.31,2.92,2.92-1.31,2.92-2.92,2.92ZM26.47,17.32c0,.58-.47,1.05-1.05,1.05s-1.05-.47-1.05-1.05.47-1.05,1.05-1.05,1.05.47,1.05,1.05ZM29.45,18.39c-.07-1.4-.39-2.64-1.41-3.67-1.02-1.02-2.27-1.34-3.67-1.41-1.45-.08-5.78-.08-7.22,0-1.4.07-2.64.39-3.67,1.41-1.03,1.02-1.34,2.27-1.41,3.67-.08,1.45-.08,5.78,0,7.22.07,1.4.39,2.64,1.41,3.67,1.03,1.02,2.27,1.34,3.67,1.41,1.45.08,5.78.08,7.22,0,1.4-.07,2.64-.39,3.67-1.41,1.02-1.02,1.34-2.27,1.41-3.67.08-1.45.08-5.77,0-7.22ZM27.58,27.16c-.3.77-.89,1.36-1.66,1.66-1.15.46-3.89.35-5.16.35s-4.01.1-5.16-.35c-.77-.3-1.36-.89-1.66-1.66-.46-1.15-.35-3.89-.35-5.16s-.1-4.01.35-5.16c.3-.77.89-1.36,1.66-1.66,1.15-.46,3.89-.35,5.16-.35s4.01-.1,5.16.35c.77.3,1.36.89,1.66,1.66.46,1.15.35,3.89.35,5.16s.11,4.01-.35,5.16Z"/>
      </g>
      <g>
        <path class="cls-3" d="M58.92,22c0-10.94,8.86-19.8,19.8-19.8s19.8,8.86,19.8,19.8-8.86,19.8-19.8,19.8-19.8-8.86-19.8-19.8Z"/>
        <path class="cls-2" d="M79,2c11.05,0,20,8.95,20,20s-8.95,20-20,20-20-8.95-20-20S67.95,2,79,2Z"/>
        <path class="cls-4" d="M86.94,17.93c.01.18.01.36.01.53,0,5.42-4.12,11.66-11.66,11.66-2.32,0-4.48-.67-6.29-1.84.33.04.65.05.99.05,1.92,0,3.68-.65,5.09-1.75-1.8-.04-3.31-1.22-3.83-2.84.25.04.51.06.77.06.37,0,.74-.05,1.08-.14-1.88-.38-3.29-2.03-3.29-4.02v-.05c.55.3,1.18.49,1.85.52-1.1-.74-1.83-1.99-1.83-3.41,0-.76.2-1.46.56-2.07,2.02,2.49,5.05,4.11,8.45,4.29-.06-.3-.1-.62-.1-.94,0-2.26,1.83-4.1,4.1-4.1,1.18,0,2.25.49,2.99,1.29.93-.18,1.81-.52,2.6-.99-.3.95-.95,1.75-1.8,2.26.82-.09,1.62-.32,2.36-.63-.56.81-1.26,1.54-2.06,2.12Z"/>
      </g>
      <g>
        <path class="cls-5" d="M117.82,18.62c0-9.07,7.35-16.42,16.43-16.42s16.43,7.35,16.43,16.42v6.75c0,9.07-7.35,16.42-16.43,16.42s-16.43-7.35-16.43-16.42v-6.75Z"/>
        <path class="cls-2" d="M134.25,2c8.98,0,16.25,7.28,16.25,16.25v7.5c0,8.97-7.27,16.25-16.25,16.25s-16.25-7.28-16.25-16.25v-7.5c0-8.97,7.28-16.25,16.25-16.25Z"/>
        <path class="cls-4" d="M138.9,23.25l.55-3.62h-3.47v-2.35c0-.99.49-1.96,2.04-1.96h1.58v-3.08s-1.43-.24-2.8-.24c-2.86,0-4.73,1.73-4.73,4.87v2.76h-3.18v3.62h3.18v8.75h3.91v-8.75h2.92Z"/>
      </g>
    </g>
  </g>
</svg>