<?xml version="1.0" encoding="UTF-8"?>
<svg id="Layer_2" data-name="Layer 2" xmlns="http://www.w3.org/2000/svg" xmlns:xlink="http://www.w3.org/1999/xlink" viewBox="0 0 46.5 44">
  <defs>
    <style>
      .cls-1, .cls-2 {
        fill: none;
      }

      .cls-2 {
        stroke: #111;
        stroke-width: 4px;
      }

      .cls-3 {
        fill: #fff56d;
      }

      .cls-4 {
        fill: #242e7a;
      }

      .cls-5 {
        clip-path: url(#clippath);
      }
    </style>
    <clipPath id="clippath">
      <rect class="cls-1" x="12" y="12" width="22.5" height="20"/>
    </clipPath>
  </defs>
  <g id="Layer_1-2" data-name="Layer 1">
    <g>
      <path class="cls-3" d="M22,2h2.5c11.05,0,20,8.95,20,20s-8.95,20-20,20h-2.5c-11.05,0-20-8.95-20-20S10.95,2,22,2Z"/>
      <path class="cls-2" d="M22,2h2.5c11.05,0,20,8.95,20,20s-8.95,20-20,20h-2.5c-11.05,0-20-8.95-20-20S10.95,2,22,2Z"/>
      <g class="cls-5">
        <path class="cls-4" d="M23.76,13.36c.45.2.74.65.74,1.14v15c0,.49-.29.94-.74,1.14-.45.2-.98.12-1.34-.21l-5.27-4.68h-2.65c-1.38,0-2.5-1.12-2.5-2.5v-2.5c0-1.38,1.12-2.5,2.5-2.5h2.65l5.27-4.68c.37-.33.89-.41,1.34-.21ZM28.6,18.52l2.15,2.15,2.15-2.15c.37-.37.96-.37,1.32,0,.36.37.37.96,0,1.32l-2.15,2.15,2.15,2.15c.37.37.37.96,0,1.32s-.96.37-1.32,0l-2.15-2.15-2.15,2.15c-.37.37-.96.37-1.32,0-.36-.37-.37-.96,0-1.32l2.15-2.15-2.15-2.15c-.37-.37-.37-.96,0-1.32.37-.36.96-.37,1.32,0Z"/>
      </g>
    </g>
  </g>
</svg>