<?xml version="1.0" encoding="UTF-8"?>
<svg id="Layer_2" data-name="Layer 2" xmlns="http://www.w3.org/2000/svg" viewBox="0 0 44 44">
  <defs>
    <style>
      .cls-1 {
        fill: none;
        stroke: #111;
        stroke-width: 4px;
      }

      .cls-2 {
        fill: #242e7a;
      }

      .cls-3 {
        fill: #b9fff6;
      }
    </style>
  </defs>
  <g id="Layer_1-2" data-name="Layer 1">
    <g>
      <path class="cls-3" d="M22,2c11.05,0,20,8.95,20,20s-8.95,20-20,20S2,33.05,2,22,10.95,2,22,2Z"/>
      <path class="cls-1" d="M22,2c11.05,0,20,8.95,20,20s-8.95,20-20,20S2,33.05,2,22,10.95,2,22,2Z"/>
      <path class="cls-2" d="M17.58,17.58c2.43-2.43,6.36-2.44,8.8-.04l-1.61,1.61c-.27.27-.35.67-.2,1.02.14.35.49.58.87.58h5c.52,0,.94-.42.94-.94v-5c0-.38-.23-.72-.58-.87-.35-.14-.75-.07-1.02.2l-1.62,1.62c-3.42-3.38-8.93-3.37-12.34.04-.95.95-1.64,2.07-2.06,3.27-.23.65.11,1.36.76,1.59.65.23,1.36-.11,1.59-.76.3-.85.79-1.65,1.48-2.34ZM12.62,24.19v5c0,.38.23.72.58.87.35.14.75.07,1.02-.2l1.62-1.62c3.42,3.38,8.93,3.37,12.34-.04.95-.95,1.64-2.07,2.07-3.27.23-.65-.11-1.36-.76-1.59-.65-.23-1.36.11-1.59.76-.3.85-.79,1.65-1.48,2.34-2.43,2.43-6.36,2.44-8.8.04l1.61-1.61c.27-.27.35-.67.2-1.02-.14-.35-.49-.58-.87-.58h-5c-.52,0-.94.42-.94.94Z"/>
    </g>
  </g>
</svg>