<?xml version="1.0" encoding="UTF-8"?>
<svg id="Layer_2" data-name="Layer 2" xmlns="http://www.w3.org/2000/svg" xmlns:xlink="http://www.w3.org/1999/xlink" viewBox="0 0 221 48">
  <defs>
    <style>
      .cls-1, .cls-2 {
        fill: none;
      }

      .cls-3 {
        fill: #111;
      }

      .cls-4 {
        fill: #87e6e0;
      }

      .cls-5 {
        fill: #a6f41d;
      }

      .cls-2 {
        stroke: #111;
        stroke-width: 4px;
      }

      .cls-6 {
        clip-path: url(#clippath-1);
      }

      .cls-7 {
        fill: #fff56d;
      }

      .cls-8 {
        fill: #242e7a;
      }

      .cls-9 {
        clip-path: url(#clippath);
      }
    </style>
    <clipPath id="clippath">
      <rect class="cls-1" x="12" y="12" width="30" height="24"/>
    </clipPath>
    <clipPath id="clippath-1">
      <rect class="cls-1" x="185" y="12" width="24" height="24"/>
    </clipPath>
  </defs>
  <g id="Layer_1-2" data-name="Layer 1">
    <g>
      <path class="cls-7" d="M24,2h6c12.15,0,22,9.85,22,22s-9.85,22-22,22h-6c-12.15,0-22-9.85-22-22S11.85,2,24,2Z"/>
      <path class="cls-2" d="M24,2h6c12.15,0,22,9.85,22,22s-9.85,22-22,22h-6c-12.15,0-22-9.85-22-22S11.85,2,24,2Z"/>
      <g class="cls-9">
        <path class="cls-8" d="M13.5,18.75c0,3.73,3.02,6.75,6.75,6.75h5.78c1.06.93,2.45,1.5,3.97,1.5s2.91-.57,3.97-1.5h1.28c2.9,0,5.25-2.35,5.25-5.25s-2.35-5.25-5.25-5.25c-.5,0-.98.07-1.44.2-1-1.9-3-3.2-5.31-3.2-1.53,0-2.92.57-3.99,1.51-1.16-.95-2.64-1.51-4.26-1.51-3.73,0-6.75,3.02-6.75,6.75ZM40.88,29.25h-15.75c-.62,0-1.12.5-1.12,1.12s.5,1.12,1.12,1.12h15.75c.62,0,1.12-.5,1.12-1.12s-.5-1.12-1.12-1.12ZM37.88,33.75h-5.25c-.62,0-1.12.5-1.12,1.12s.5,1.12,1.12,1.12h5.25c.62,0,1.12-.5,1.12-1.12s-.5-1.12-1.12-1.12ZM28.88,33.75h-15.75c-.62,0-1.12.5-1.12,1.12s.5,1.12,1.12,1.12h15.75c.62,0,1.12-.5,1.12-1.12s-.5-1.12-1.12-1.12ZM22.5,30.38c0-.62-.5-1.12-1.12-1.12h-4.88c-.62,0-1.12.5-1.12,1.12s.5,1.12,1.12,1.12h4.88c.62,0,1.12-.5,1.12-1.12Z"/>
      </g>
      <path class="cls-5" d="M113.5,2c9.67,0,17.5,7.84,17.5,17.5v9c0,9.67-7.83,17.5-17.5,17.5s-17.5-7.83-17.5-17.5v-9c0-9.66,7.83-17.5,17.5-17.5Z"/>
      <path class="cls-2" d="M113.5,2c9.67,0,17.5,7.84,17.5,17.5v9c0,9.67-7.83,17.5-17.5,17.5s-17.5-7.83-17.5-17.5v-9c0-9.66,7.83-17.5,17.5-17.5Z"/>
      <path class="cls-3" d="M111.62,12h3.75c.62,0,1.12.5,1.12,1.12v1.88h-6v-1.88c0-.62.5-1.12,1.12-1.12ZM107.5,19.11c0-.73.42-1.4,1.09-1.71l1.14-.53c.52-.24,1.08-.37,1.65-.37h4.25c.57,0,1.13.13,1.65.37l1.14.53c.66.31,1.09.98,1.09,1.71,0,.67-.35,1.27-.89,1.6.54.41.89,1.06.89,1.79,0,.78-.4,1.47-1.01,1.88.61.4,1.01,1.09,1.01,1.88s-.4,1.47-1.01,1.88c.61.4,1.01,1.09,1.01,1.88s-.4,1.47-1.01,1.88c.61.4,1.01,1.09,1.01,1.88,0,1.24-1.01,2.25-2.25,2.25h-7.5c-1.24,0-2.25-1.01-2.25-2.25,0-.78.4-1.47,1.01-1.88-.61-.4-1.01-1.09-1.01-1.88s.4-1.47,1.01-1.88c-.61-.4-1.01-1.09-1.01-1.88s.4-1.47,1.01-1.88c-.61-.4-1.01-1.09-1.01-1.88,0-.73.35-1.38.89-1.79-.53-.33-.89-.92-.89-1.6ZM110.5,23.25c0,.41.34.75.75.75h4.5c.41,0,.75-.34.75-.75s-.34-.75-.75-.75h-4.5c-.41,0-.75.34-.75.75ZM111.25,28.5c-.41,0-.75.34-.75.75s.34.75.75.75h4.5c.41,0,.75-.34.75-.75s-.34-.75-.75-.75h-4.5Z"/>
      <path class="cls-4" d="M197,2c12.15,0,22,9.85,22,22s-9.85,22-22,22-22-9.85-22-22,9.85-22,22-22Z"/>
      <path class="cls-2" d="M197,2c12.15,0,22,9.85,22,22s-9.85,22-22,22-22-9.85-22-22,9.85-22,22-22Z"/>
      <g class="cls-6">
        <path class="cls-8" d="M187.71,21.05l.44.77c.39.68,1.03,1.18,1.78,1.4l2.71.77c.81.23,1.36.97,1.36,1.8v1.87c0,.52.29.98.75,1.21s.75.7.75,1.21v1.83c0,.73.7,1.26,1.4,1.06.75-.22,1.34-.82,1.53-1.58l.13-.52c.2-.79.71-1.47,1.42-1.88l.38-.22c.7-.4,1.13-1.15,1.13-1.95v-.39c0-.6-.24-1.17-.66-1.59l-.18-.18c-.42-.42-.99-.66-1.59-.66h-2.02c-.52,0-1.04-.14-1.49-.39l-1.62-.92c-.2-.12-.36-.3-.43-.52-.15-.45.05-.94.48-1.15l.28-.14c.31-.15.67-.18,1-.07l1.09.36c.38.13.81-.02,1.03-.35.22-.33.2-.76-.06-1.07l-.64-.76c-.47-.56-.46-1.38.01-1.94l.74-.86c.41-.48.48-1.17.16-1.72l-.11-.2c-.16,0-.32-.01-.49-.01-4.35,0-8.04,2.85-9.29,6.8ZM206.75,24c0-1.73-.45-3.35-1.24-4.76l-1.2.48c-.74.3-1.11,1.12-.87,1.87l.79,2.38c.16.49.56.86,1.06.98l1.36.34c.06-.42.08-.85.08-1.29h0ZM185,24c0-3.18,1.26-6.23,3.51-8.49,2.25-2.25,5.3-3.51,8.49-3.51s6.24,1.26,8.49,3.51c2.25,2.25,3.51,5.3,3.51,8.49s-1.26,6.23-3.51,8.49c-2.25,2.25-5.3,3.51-8.49,3.51s-6.24-1.26-8.49-3.51c-2.25-2.25-3.51-5.3-3.51-8.49Z"/>
      </g>
    </g>
  </g>
</svg>