<svg width="24" height="18" viewBox="0 0 24 18" fill="none" xmlns="http://www.w3.org/2000/svg">
<g clip-path="url(#clip0_102_2595)">
<path d="M4.6875 0C3.75586 0 3 0.755859 3 1.6875V3.375H1.3125C1.00312 3.375 0.75 3.62812 0.75 3.9375C0.75 4.24688 1.00312 4.5 1.3125 4.5H3H10.3125C10.6219 4.5 10.875 4.75312 10.875 5.0625C10.875 5.37188 10.6219 5.625 10.3125 5.625H3H2.4375C2.12812 5.625 1.875 5.87812 1.875 6.1875C1.875 6.49688 2.12812 6.75 2.4375 6.75H3H9.1875C9.49688 6.75 9.75 7.00312 9.75 7.3125C9.75 7.62188 9.49688 7.875 9.1875 7.875H3H1.3125C1.00312 7.875 0.75 8.12812 0.75 8.4375C0.75 8.74688 1.00312 9 1.3125 9H3H8.0625C8.37188 9 8.625 9.25312 8.625 9.5625C8.625 9.87188 8.37188 10.125 8.0625 10.125H3V14.625C3 16.4883 4.51172 18 6.375 18C8.23828 18 9.75 16.4883 9.75 14.625H14.25C14.25 16.4883 15.7617 18 17.625 18C19.4883 18 21 16.4883 21 14.625H22.125C22.7473 14.625 23.25 14.1223 23.25 13.5C23.25 12.8777 22.7473 12.375 22.125 12.375V10.125V9V8.34258C22.125 7.74492 21.8895 7.17188 21.4676 6.75L18.75 4.03242C18.3281 3.61055 17.7551 3.375 17.1574 3.375H15.375V1.6875C15.375 0.755859 14.6191 0 13.6875 0H4.6875ZM19.875 8.34258V9H15.375V5.625H17.1574L19.875 8.34258ZM6.375 12.9375C6.82255 12.9375 7.25178 13.1153 7.56824 13.4318C7.88471 13.7482 8.0625 14.1774 8.0625 14.625C8.0625 15.0726 7.88471 15.5018 7.56824 15.8182C7.25178 16.1347 6.82255 16.3125 6.375 16.3125C5.92745 16.3125 5.49822 16.1347 5.18176 15.8182C4.86529 15.5018 4.6875 15.0726 4.6875 14.625C4.6875 14.1774 4.86529 13.7482 5.18176 13.4318C5.49822 13.1153 5.92745 12.9375 6.375 12.9375ZM15.9375 14.625C15.9375 14.1774 16.1153 13.7482 16.4318 13.4318C16.7482 13.1153 17.1774 12.9375 17.625 12.9375C18.0726 12.9375 18.5018 13.1153 18.8182 13.4318C19.1347 13.7482 19.3125 14.1774 19.3125 14.625C19.3125 15.0726 19.1347 15.5018 18.8182 15.8182C18.5018 16.1347 18.0726 16.3125 17.625 16.3125C17.1774 16.3125 16.7482 16.1347 16.4318 15.8182C16.1153 15.5018 15.9375 15.0726 15.9375 14.625Z" fill="#242E7A"/>
</g>
<defs>
<clipPath id="clip0_102_2595">
<path d="M0.75 0H23.25V18H0.75V0Z" fill="white"/>
</clipPath>
</defs>
</svg>
