<svg width="13" height="12" viewBox="0 0 13 12" fill="none" xmlns="http://www.w3.org/2000/svg">
<g clip-path="url(#clip0_102_2570)">
<path d="M6.42188 2.24999C4.57969 2.24999 3.02109 3.45703 2.49141 5.12109C3.27891 4.72265 4.16719 4.49999 5.10938 4.49999H7.17188C7.37813 4.49999 7.54688 4.66874 7.54688 4.87499C7.54688 5.08124 7.37813 5.24999 7.17188 5.24999H6.79688H5.10938C4.72031 5.24999 4.34297 5.29453 3.97969 5.37656C3.37266 5.51484 2.80781 5.76093 2.30625 6.09609C0.944531 7.00312 0.046875 8.55234 0.046875 10.3125V10.6875C0.046875 10.9992 0.297656 11.25 0.609375 11.25C0.921094 11.25 1.17188 10.9992 1.17188 10.6875V10.3125C1.17188 9.17109 1.65703 8.14453 2.43281 7.42499C2.89688 9.19453 4.50703 10.5 6.42188 10.5H6.44531C9.54141 10.4836 12.0469 7.43203 12.0469 3.67031C12.0469 2.67187 11.8711 1.72265 11.5523 0.867182C11.4914 0.705463 11.2547 0.712494 11.1727 0.864838C10.732 1.68984 9.86016 2.24999 8.85938 2.24999H6.42188Z" fill="#242E7A"/>
</g>
<defs>
<clipPath id="clip0_102_2570">
<path d="M0.046875 0H12.0469V12H0.046875V0Z" fill="white"/>
</clipPath>
</defs>
</svg>
