<?xml version="1.0" encoding="UTF-8"?>
<svg id="Layer_2" data-name="Layer 2" xmlns="http://www.w3.org/2000/svg" viewBox="0 0 56.41 52.25">
  <defs>
    <style>
      .cls-1 {
        fill: #a6f41d;
      }
    </style>
  </defs>
  <g id="Layer_1-2" data-name="Layer 1">
    <g>
      <path class="cls-1" d="M49.67,36.03H15.82c-1.28,0-2.37-.92-2.58-2.18l-4.13-24.7c-.27-1.59.96-3.04,2.58-3.04h42.11c1.62,0,2.84,1.45,2.58,3.04l-4.13,24.7c-.21,1.26-1.3,2.18-2.58,2.18Z"/>
      <path class="cls-1" d="M21.87,26.79c1.1,0,2,.9,2,2s-.9,2-2,2c-2.63,0-4.78,2.14-4.78,4.78s2.14,4.78,4.78,4.78h28.8c1.1,0,2,.9,2,2s-.9,2-2,2h-28.8c-4.84,0-8.78-3.94-8.78-8.78s3.94-8.78,8.78-8.78Z"/>
      <path class="cls-1" d="M12.74,22.3c-.71,0-1.34-.5-1.47-1.22l-2.42-12.75c-.41-2.14-2.03-3.88-4.14-4.44l-3.6-.95C.32,2.74-.16,1.92.05,1.12.26.32,1.08-.16,1.88.05l3.6.95c3.22.85,5.7,3.51,6.32,6.78l2.42,12.75c.15.81-.38,1.6-1.19,1.75-.09.02-.19.03-.28.03Z"/>
      <circle class="cls-1" cx="23.52" cy="48.86" r="3.39"/>
      <circle class="cls-1" cx="46.76" cy="48.86" r="3.39"/>
    </g>
  </g>
</svg>