<?xml version="1.0" encoding="UTF-8"?>
<svg id="Layer_2" data-name="Layer 2" xmlns="http://www.w3.org/2000/svg" viewBox="0 0 256.91 48.61">
  <defs>
    <style>
      .cls-1 {
        fill: #a6f41d;
      }
    </style>
  </defs>
  <g id="Layer_1-2" data-name="Layer 1">
    <g>
      <g>
        <path class="cls-1" d="M116.52,38.76c-.09-.4-.33-.89-.73-1.46l-4.38-6.65s.04-.03.06-.04c1.04-.64,1.9-1.44,2.58-2.38.67-.95,1.18-1.97,1.52-3.08.35-1.1.52-2.2.52-3.29,0-1.72-.28-3.21-.84-4.47s-1.31-2.32-2.26-3.18c-.94-.86-2.02-1.5-3.22-1.91-1.21-.42-2.45-.63-3.74-.63h-9.21c-.8,0-1.39.13-1.76.37-.37.24-.61.56-.71.94-.1.39-.15.81-.15,1.27v24.81c0,.46.04.9.13,1.32.09.41.32.73.69.96.37.23.96.35,1.76.35s1.43-.12,1.79-.35c.35-.23.58-.54.68-.94.1-.4.15-.83.15-1.29v-7.23h6.47l5.57,8.43c.55.78,1.08,1.24,1.6,1.4.51.16,1.18-.07,2.02-.67.6-.43,1.01-.82,1.24-1.16.23-.34.3-.72.22-1.12ZM99.4,16.92h6.54c1.03,0,1.91.19,2.64.58.74.39,1.29.95,1.68,1.68.39.73.58,1.61.58,2.64,0,.86-.12,1.59-.36,2.19-.25.61-.56,1.12-.95,1.53-.39.42-.83.72-1.33.9-.5.19-1.01.28-1.53.28h-7.27v-9.8Z"/>
        <path class="cls-1" d="M130.53,42.03c-1.86,0-3.5-.31-4.9-.92-1.4-.62-2.57-1.45-3.48-2.49-.92-1.05-1.61-2.22-2.09-3.53-.47-1.3-.71-2.66-.71-4.06,0-2.06.47-3.9,1.42-5.5s2.26-2.87,3.93-3.78c1.68-.92,3.6-1.38,5.78-1.38,1.55,0,2.91.24,4.09.73,1.17.49,2.16,1.13,2.95,1.91.79.79,1.39,1.66,1.81,2.6.42.95.62,1.86.62,2.75,0,1.52-.37,2.62-1.1,3.31s-1.64,1.03-2.73,1.03h-11.35c.03.98.34,1.82.92,2.54.59.72,1.33,1.27,2.24,1.66.9.39,1.83.58,2.77.58.72,0,1.35-.04,1.89-.13.54-.09,1.02-.19,1.42-.32.4-.13.76-.27,1.07-.41.32-.14.59-.27.84-.39.24-.11.48-.19.71-.21.34-.03.67.04.99.21.31.17.57.47.77.9.17.29.29.55.37.8.07.24.11.48.11.71,0,.57-.34,1.12-1.03,1.63-.69.52-1.66.94-2.9,1.27-1.25.33-2.72.49-4.41.49ZM124.77,29.65h8.81c.49,0,.85-.08,1.1-.24.24-.16.37-.49.37-1.01,0-.66-.2-1.25-.6-1.76s-.95-.93-1.63-1.25c-.69-.31-1.48-.47-2.37-.47-1.06,0-2.02.21-2.88.65-.86.43-1.54,1-2.04,1.72-.5.72-.75,1.5-.75,2.37Z"/>
        <path class="cls-1" d="M153.67,42.03c-1.86,0-3.5-.31-4.9-.92-1.4-.62-2.57-1.45-3.48-2.49-.92-1.05-1.61-2.22-2.09-3.53-.47-1.3-.71-2.66-.71-4.06,0-2.06.47-3.9,1.42-5.5s2.26-2.87,3.93-3.78c1.68-.92,3.6-1.38,5.78-1.38,1.55,0,2.91.24,4.09.73,1.17.49,2.16,1.13,2.95,1.91.79.79,1.39,1.66,1.81,2.6.42.95.62,1.86.62,2.75,0,1.52-.37,2.62-1.1,3.31s-1.64,1.03-2.73,1.03h-11.35c.03.98.34,1.82.92,2.54.59.72,1.33,1.27,2.24,1.66.9.39,1.83.58,2.77.58.72,0,1.35-.04,1.89-.13.54-.09,1.02-.19,1.42-.32.4-.13.76-.27,1.07-.41.32-.14.59-.27.84-.39.24-.11.48-.19.71-.21.34-.03.67.04.99.21.31.17.57.47.77.9.17.29.29.55.37.8.07.24.11.48.11.71,0,.57-.34,1.12-1.03,1.63-.69.52-1.66.94-2.9,1.27-1.25.33-2.72.49-4.41.49ZM147.9,29.65h8.81c.49,0,.85-.08,1.1-.24.24-.16.37-.49.37-1.01,0-.66-.2-1.25-.6-1.76s-.95-.93-1.63-1.25c-.69-.31-1.48-.47-2.37-.47-1.06,0-2.02.21-2.88.65-.86.43-1.54,1-2.04,1.72-.5.72-.75,1.5-.75,2.37Z"/>
        <path class="cls-1" d="M173.96,41.73c-1.06,0-2-.07-2.82-.22-.82-.14-1.52-.39-2.11-.73-.59-.34-1.08-.81-1.46-1.4-.39-.59-.67-1.31-.84-2.17-.17-.86-.26-1.89-.26-3.1V13.44c0-.52.04-.97.13-1.35.09-.39.32-.7.69-.95.37-.24.96-.37,1.76-.37s1.38.11,1.74.34c.36.23.59.54.69.95.1.4.15.85.15,1.33v20.51c0,.54.04,1,.11,1.35.07.36.2.65.39.86.19.22.43.37.73.45.3.09.67.13,1.1.13.37,0,.71.04,1.01.13.3.09.54.3.73.65.19.34.28.9.28,1.68s-.09,1.39-.28,1.76c-.19.37-.44.6-.75.69-.32.09-.65.13-.99.13Z"/>
        <path class="cls-1" d="M180.67,41.73c-.77,0-1.4-.24-1.87-.71-.47-.47-.71-1.08-.71-1.83,0-.4.06-.76.19-1.08.13-.31.34-.6.62-.86l11.18-11.57h-8.43c-.46,0-.89-.04-1.29-.13-.4-.09-.72-.32-.97-.69-.24-.37-.37-.96-.37-1.76s.12-1.38.37-1.74c.24-.36.57-.59.97-.69.4-.1.83-.15,1.29-.15h13.85c.77,0,1.4.24,1.87.71.47.47.71,1.08.71,1.83,0,.37-.06.72-.19,1.03-.13.32-.29.57-.49.77l-11.09,11.7h9.76c.49,0,.92.05,1.31.15.39.1.69.34.92.71.23.37.34.96.34,1.76s-.12,1.35-.37,1.72c-.24.37-.56.6-.95.69-.39.09-.82.13-1.31.13h-15.35Z"/>
        <path class="cls-1" d="M229.39,38.08l-11.91-24.82c-.17-.34-.38-.63-.62-.86-.25-.22-.51-.4-.8-.53-.28-.13-.6-.2-.94-.2-.52,0-1,.15-1.44.43-.45.29-.79.66-1.02,1.12l-11.82,24.6c-.29.63-.45,1.17-.49,1.61-.05.44.07.82.34,1.14.27.32.69.62,1.27.9.91.43,1.63.55,2.15.35.51-.2.99-.75,1.42-1.64l2.94-6.23h13.21l2.94,6.23c.43.92.9,1.48,1.42,1.68.51.2,1.23.09,2.15-.35.6-.31,1.03-.62,1.29-.92s.38-.66.36-1.07c-.01-.42-.16-.9-.45-1.44ZM210.59,29.47l4.48-9.5,4.49,9.5h-8.97Z"/>
        <path class="cls-1" d="M235.24,16.44c-.86,0-1.48-.13-1.87-.39-.39-.26-.63-.6-.73-1.03-.1-.43-.15-.9-.15-1.42s.06-.98.17-1.4c.11-.42.37-.75.75-.99.39-.24,1.01-.37,1.87-.37s1.48.13,1.85.39c.37.26.62.6.73,1.03.11.43.17.9.17,1.42s-.06.98-.17,1.4c-.11.42-.36.75-.73.99-.37.24-1,.37-1.89.37ZM235.24,41.73c-.8,0-1.38-.12-1.74-.37-.36-.24-.58-.56-.67-.95-.09-.39-.13-.82-.13-1.31v-15.95c0-.49.04-.92.13-1.31s.31-.69.69-.92c.37-.23.96-.34,1.76-.34s1.38.11,1.74.34c.36.23.58.54.67.95.09.4.13.86.13,1.38v15.91c0,.49-.04.92-.13,1.31-.09.39-.31.7-.67.92-.36.23-.95.34-1.78.34Z"/>
        <path class="cls-1" d="M245.04,41.73c-.8,0-1.38-.12-1.74-.37-.36-.24-.58-.57-.67-.97-.09-.4-.13-.85-.13-1.33v-15.95c0-.49.05-.93.15-1.33.1-.4.33-.71.69-.92.36-.22.94-.32,1.74-.32s1.34.1,1.7.3c.36.2.59.46.69.77.1.32.15.6.15.86l-.34.77c.14-.23.34-.51.6-.84.26-.33.6-.66,1.03-.99.43-.33.95-.6,1.55-.82.6-.21,1.32-.32,2.15-.32.34,0,.71.04,1.1.11.39.07.77.17,1.16.3.39.13.74.29,1.05.49.32.2.56.44.73.71.17.27.26.58.26.92,0,.92-.23,1.69-.69,2.32-.46.63-1,.95-1.63.95-.43,0-.75-.04-.95-.13-.2-.09-.37-.18-.49-.28-.13-.1-.32-.19-.56-.28-.24-.09-.62-.13-1.14-.13-.43,0-.87.07-1.31.21-.44.14-.85.36-1.23.65-.37.29-.67.65-.9,1.08-.23.43-.34.93-.34,1.5v10.45c0,.49-.04.92-.13,1.31-.09.39-.32.7-.69.92-.37.23-.98.34-1.81.34Z"/>
      </g>
      <g>
        <path class="cls-1" d="M71.54,39.83c-1.1,0-2-.9-2-2s.9-2,2-2c2.63,0,4.78-2.14,4.78-4.78s-2.14-4.78-4.78-4.78H2c-1.1,0-2-.9-2-2s.9-2,2-2h69.54c4.84,0,8.78,3.94,8.78,8.78s-3.94,8.78-8.78,8.78Z"/>
        <path class="cls-1" d="M30.8,48.61c-1.1,0-2-.9-2-2s.9-2,2-2c2.63,0,4.78-2.14,4.78-4.78s-2.14-4.78-4.78-4.78H2c-1.1,0-2-.9-2-2s.9-2,2-2h28.8c4.84,0,8.78,3.94,8.78,8.78s-3.94,8.78-8.78,8.78Z"/>
        <path class="cls-1" d="M55.08,17.55H2c-1.1,0-2-.9-2-2s.9-2,2-2h53.08c2.63,0,4.78-2.14,4.78-4.78s-2.14-4.78-4.78-4.78c-1.1,0-2-.9-2-2s.9-2,2-2c4.84,0,8.78,3.94,8.78,8.78s-3.94,8.78-8.78,8.78Z"/>
      </g>
    </g>
  </g>
</svg>