<svg width="17" height="16" viewBox="0 0 17 16" fill="none" xmlns="http://www.w3.org/2000/svg">
<g clip-path="url(#clip0_102_1687)">
<path d="M8.125 16C10.2467 16 12.2816 15.1571 13.7819 13.6569C15.2821 12.1566 16.125 10.1217 16.125 8C16.125 5.87827 15.2821 3.84344 13.7819 2.34315C12.2816 0.842855 10.2467 0 8.125 0C6.00327 0 3.96844 0.842855 2.46815 2.34315C0.967855 3.84344 0.125 5.87827 0.125 8C0.125 10.1217 0.967855 12.1566 2.46815 13.6569C3.96844 15.1571 6.00327 16 8.125 16ZM6.875 10.5H7.625V8.5H6.875C6.45937 8.5 6.125 8.16562 6.125 7.75C6.125 7.33437 6.45937 7 6.875 7H8.375C8.79062 7 9.125 7.33437 9.125 7.75V10.5H9.375C9.79062 10.5 10.125 10.8344 10.125 11.25C10.125 11.6656 9.79062 12 9.375 12H6.875C6.45937 12 6.125 11.6656 6.125 11.25C6.125 10.8344 6.45937 10.5 6.875 10.5ZM8.125 4C8.39022 4 8.64457 4.10536 8.83211 4.29289C9.01964 4.48043 9.125 4.73478 9.125 5C9.125 5.26522 9.01964 5.51957 8.83211 5.70711C8.64457 5.89464 8.39022 6 8.125 6C7.85978 6 7.60543 5.89464 7.41789 5.70711C7.23036 5.51957 7.125 5.26522 7.125 5C7.125 4.73478 7.23036 4.48043 7.41789 4.29289C7.60543 4.10536 7.85978 4 8.125 4Z" fill="#242E7A"/>
</g>
<defs>
<clipPath id="clip0_102_1687">
<path d="M0.125 0H16.125V16H0.125V0Z" fill="white"/>
</clipPath>
</defs>
</svg>
