<svg width="24" height="20" viewBox="0 0 24 20" fill="none" xmlns="http://www.w3.org/2000/svg">
<g clip-path="url(#clip0_102_1699)">
<path d="M6.67186 18.3438C6.43358 18.6016 6.10155 18.75 5.74999 18.75C5.39843 18.75 5.06639 18.6016 4.82811 18.3438L1.39061 14.5938C0.92577 14.0859 0.95702 13.293 1.46874 12.8281C1.98046 12.3633 2.76952 12.3945 3.23436 12.9062L4.49999 14.2852V2.5C4.49999 1.80859 5.05858 1.25 5.74999 1.25C6.44139 1.25 6.99999 1.80859 6.99999 2.5V14.2852L8.26561 12.9023C8.73046 12.3945 9.52343 12.3594 10.0312 12.8242C10.5391 13.2891 10.5742 14.082 10.1094 14.5898L6.67186 18.3398V18.3438ZM13.25 18.75C12.5586 18.75 12 18.1914 12 17.5C12 16.8086 12.5586 16.25 13.25 16.25H14.5C15.1914 16.25 15.75 16.8086 15.75 17.5C15.75 18.1914 15.1914 18.75 14.5 18.75H13.25ZM13.25 13.75C12.5586 13.75 12 13.1914 12 12.5C12 11.8086 12.5586 11.25 13.25 11.25H17C17.6914 11.25 18.25 11.8086 18.25 12.5C18.25 13.1914 17.6914 13.75 17 13.75H13.25ZM13.25 8.75C12.5586 8.75 12 8.19141 12 7.5C12 6.80859 12.5586 6.25 13.25 6.25H19.5C20.1914 6.25 20.75 6.80859 20.75 7.5C20.75 8.19141 20.1914 8.75 19.5 8.75H13.25ZM13.25 3.75C12.5586 3.75 12 3.19141 12 2.5C12 1.80859 12.5586 1.25 13.25 1.25H22C22.6914 1.25 23.25 1.80859 23.25 2.5C23.25 3.19141 22.6914 3.75 22 3.75H13.25Z" fill="#242E7A"/>
</g>
<defs>
<clipPath id="clip0_102_1699">
<path d="M0.75 0H23.25V20H0.75V0Z" fill="white"/>
</clipPath>
</defs>
</svg>
