<svg width="13" height="14" viewBox="0 0 13 14" fill="none" xmlns="http://www.w3.org/2000/svg">
<g clip-path="url(#clip0_102_1667)">
<path d="M8.2332 0.951588C8.54766 1.09378 8.75 1.40549 8.75 1.75003V12.25C8.75 12.5946 8.54766 12.9063 8.2332 13.0485C7.91875 13.1907 7.54961 13.1332 7.29258 12.9035L3.60391 9.62503H1.75C0.784766 9.62503 0 8.84026 0 7.87503V6.12503C0 5.15979 0.784766 4.37503 1.75 4.37503H3.60391L7.29258 1.09651C7.54961 0.866823 7.91875 0.812135 8.2332 0.951588ZM11.282 4.96292C11.8699 5.44417 12.25 6.17698 12.25 7.00003C12.25 7.82307 11.8699 8.55589 11.282 9.03714C11.0004 9.26682 10.5875 9.22307 10.3578 8.94143C10.1281 8.65979 10.1719 8.2469 10.4535 8.01721C10.7488 7.77659 10.9375 7.41018 10.9375 7.00003C10.9375 6.58987 10.7488 6.22346 10.4535 5.9801C10.1719 5.75042 10.1309 5.33753 10.3578 5.05589C10.5848 4.77424 11.0004 4.73323 11.282 4.96018V4.96292Z" fill="#87E6E0"/>
</g>
<defs>
<clipPath id="clip0_102_1667">
<path d="M0 0H12.25V14H0V0Z" fill="white"/>
</clipPath>
</defs>
</svg>
