<svg width="27" height="24" viewBox="0 0 27 24" fill="none" xmlns="http://www.w3.org/2000/svg">
<path d="M27 24H0V0H27V24Z" stroke="#283180"/>
<path d="M21.75 7.5C22.1625 7.5 22.5 7.8375 22.5 8.25V15.75C22.5 16.1625 22.1625 16.5 21.75 16.5H3.75C3.3375 16.5 3 16.1625 3 15.75V8.25C3 7.8375 3.3375 7.5 3.75 7.5H21.75ZM3.75 4.5C1.67812 4.5 0 6.17812 0 8.25V15.75C0 17.8219 1.67812 19.5 3.75 19.5H21.75C23.8219 19.5 25.5 17.8219 25.5 15.75V15C26.3297 15 27 14.3297 27 13.5V10.5C27 9.67031 26.3297 9 25.5 9V8.25C25.5 6.17812 23.8219 4.5 21.75 4.5H3.75ZM21 9H4.5V15H21V9Z" fill="#A6F41D"/>
</svg>
