<svg width="20" height="20" viewBox="0 0 20 20" fill="none" xmlns="http://www.w3.org/2000/svg">
<path d="M20 20H0V0H20V20Z" stroke="#E5E7EB"/>
<path d="M0.152384 2.14453C0.410196 1.59766 0.957071 1.25 1.56254 1.25H18.4375C19.043 1.25 19.5899 1.59766 19.8477 2.14453C20.1055 2.69141 20.0274 3.33594 19.6446 3.80469L12.5 12.5352V17.5C12.5 17.9727 12.2344 18.4062 11.8086 18.6172C11.3829 18.8281 10.8789 18.7852 10.5 18.5L8.00004 16.625C7.68363 16.3906 7.50004 16.0195 7.50004 15.625V12.5352L0.351602 3.80078C-0.0273037 3.33594 -0.109335 2.6875 0.152384 2.14453Z" fill="#242E7A"/>
</svg>
