<svg width="25" height="24" viewBox="0 0 25 24" fill="none" xmlns="http://www.w3.org/2000/svg">
<path d="M24.5 24H0.5V0H24.5V24Z" stroke="#283180"/>
<path d="M7.19844 6.69841C10.1141 3.78278 14.825 3.76872 17.7594 6.65153L15.8281 8.57809C15.5047 8.90153 15.4109 9.38434 15.5844 9.80622C15.7578 10.2281 16.1703 10.5 16.625 10.5H22.2266H22.625C23.2484 10.5 23.75 9.99841 23.75 9.37497V3.37497C23.75 2.92028 23.4781 2.50778 23.0563 2.33434C22.6344 2.16091 22.1516 2.25466 21.8281 2.57809L19.8781 4.52809C15.7719 0.473407 9.15781 0.48747 5.075 4.57497C3.93125 5.71872 3.10625 7.06403 2.6 8.50309C2.32344 9.28591 2.73594 10.139 3.51406 10.4156C4.29219 10.6922 5.15 10.2797 5.42656 9.50153C5.7875 8.47966 6.37344 7.51872 7.19844 6.69841ZM1.25 14.625V14.9812V15.014V20.625C1.25 21.0797 1.52187 21.4922 1.94375 21.6656C2.36562 21.839 2.84844 21.7453 3.17188 21.4218L5.12187 19.4718C9.22812 23.5265 15.8422 23.5125 19.925 19.425C21.0687 18.2812 21.8984 16.9359 22.4047 15.5015C22.6812 14.7187 22.2687 13.8656 21.4906 13.589C20.7125 13.3125 19.8547 13.725 19.5781 14.5031C19.2172 15.525 18.6313 16.4859 17.8063 17.3062C14.8906 20.2218 10.1797 20.2359 7.24531 17.3531L9.17188 15.4218C9.49531 15.0984 9.58906 14.6156 9.41562 14.1937C9.24219 13.7718 8.82969 13.5 8.375 13.5H2.76875H2.73594H2.375C1.75156 13.5 1.25 14.0015 1.25 14.625Z" fill="#A6F41D"/>
</svg>
