<svg width="14" height="14" viewBox="0 0 14 14" fill="none" xmlns="http://www.w3.org/2000/svg">
<g clip-path="url(#clip0_102_1651)">
<path d="M0.00546875 12.8215C0.0738281 13.4832 0.631641 14 1.3125 14H3.9375H12.6875C13.4121 14 14 13.4121 14 12.6875V10.0625C14 9.33789 13.4121 8.75 12.6875 8.75H11.375V10.9375C11.375 11.1781 11.1781 11.375 10.9375 11.375C10.6969 11.375 10.5 11.1781 10.5 10.9375V8.75H8.75V10.9375C8.75 11.1781 8.55313 11.375 8.3125 11.375C8.07187 11.375 7.875 11.1781 7.875 10.9375V8.75H6.125V10.9375C6.125 11.1781 5.92812 11.375 5.6875 11.375C5.44688 11.375 5.25 11.1781 5.25 10.9375V8.75H3.0625C2.82188 8.75 2.625 8.55313 2.625 8.3125C2.625 8.07187 2.82188 7.875 3.0625 7.875H5.25V6.125H3.0625C2.82188 6.125 2.625 5.92812 2.625 5.6875C2.625 5.44688 2.82188 5.25 3.0625 5.25H5.25V3.5H3.0625C2.82188 3.5 2.625 3.30312 2.625 3.0625C2.625 2.82188 2.82188 2.625 3.0625 2.625H5.25V1.3125C5.25 0.587891 4.66211 0 3.9375 0H1.3125C0.587891 0 0 0.587891 0 1.3125V10.0625V12.6875C0 12.734 0.00273437 12.7777 0.00546875 12.8215Z" fill="#87E6E0"/>
</g>
<defs>
<clipPath id="clip0_102_1651">
<path d="M0 0H14V14H0V0Z" fill="white"/>
</clipPath>
</defs>
</svg>
