<svg width="15" height="13" viewBox="0 0 15 13" fill="none" xmlns="http://www.w3.org/2000/svg">
<g clip-path="url(#clip0_102_1798)">
<path d="M8.25552 0.921875C8.1313 0.664062 7.8688 0.5 7.58052 0.5C7.29224 0.5 7.03208 0.664062 6.90552 0.921875L5.39849 4.02266L2.03287 4.51953C1.75162 4.56172 1.51724 4.75859 1.43052 5.02812C1.3438 5.29766 1.41412 5.59531 1.61568 5.79453L4.05787 8.21094L3.4813 11.6258C3.43443 11.907 3.55162 12.193 3.78365 12.3594C4.01568 12.5258 4.32271 12.5469 4.57583 12.4133L7.58287 10.8078L10.5899 12.4133C10.843 12.5469 11.1501 12.5281 11.3821 12.3594C11.6141 12.1906 11.7313 11.907 11.6844 11.6258L11.1055 8.21094L13.5477 5.79453C13.7493 5.59531 13.8219 5.29766 13.7329 5.02812C13.6438 4.75859 13.4118 4.56172 13.1305 4.51953L9.76255 4.02266L8.25552 0.921875Z" fill="#242E7A"/>
</g>
<defs>
<clipPath id="clip0_102_1798">
<path d="M0.828125 0.5H14.3281V12.5H0.828125V0.5Z" fill="white"/>
</clipPath>
</defs>
</svg>
